<mxfile host="app.diagrams.net" agent="Mozilla/5.0 (Windows NT 10.0; Win64; x64) AppleWebKit/537.36 (KHTML, like Gecko) Chrome/132.0.0.0 Safari/537.36 OPR/117.0.0.0" version="26.0.16">
  <diagram name="Página-1" id="T5F_Id7pFWsIU0IxR0yo">
    <mxGraphModel dx="1308" dy="656" grid="1" gridSize="10" guides="1" tooltips="1" connect="1" arrows="1" fold="1" page="1" pageScale="1" pageWidth="827" pageHeight="1169" math="0" shadow="0">
      <root>
        <mxCell id="0" />
        <mxCell id="1" parent="0" />
        <mxCell id="mNuq875lW_e4v6Epo9zL-4" value="" style="edgeStyle=orthogonalEdgeStyle;rounded=0;orthogonalLoop=1;jettySize=auto;html=1;" edge="1" parent="1" source="mNuq875lW_e4v6Epo9zL-1" target="mNuq875lW_e4v6Epo9zL-3">
          <mxGeometry relative="1" as="geometry" />
        </mxCell>
        <mxCell id="mNuq875lW_e4v6Epo9zL-1" value="&lt;font&gt;&lt;b&gt;df.precip.diaria.txt&lt;/b&gt;&lt;/font&gt;" style="shape=parallelogram;html=1;strokeWidth=1;perimeter=parallelogramPerimeter;whiteSpace=wrap;rounded=1;arcSize=12;size=0.23;fontFamily=Helvetica;" vertex="1" parent="1">
          <mxGeometry x="300" y="20" width="160" height="60" as="geometry" />
        </mxCell>
        <mxCell id="mNuq875lW_e4v6Epo9zL-2" value="Séries AM de precipitação diária&lt;div&gt;3.800 estações pluviométricas&lt;/div&gt;&lt;div&gt;Pelo menos 15 anos de dados&lt;/div&gt;&lt;div&gt;Dados até 2021&lt;/div&gt;&lt;div&gt;Dados organizados pelo Quarto (Dirceu)&lt;/div&gt;" style="text;html=1;align=left;verticalAlign=middle;resizable=0;points=[];autosize=1;strokeColor=none;fillColor=none;fontSize=10;" vertex="1" parent="1">
          <mxGeometry x="480" y="15" width="200" height="70" as="geometry" />
        </mxCell>
        <mxCell id="mNuq875lW_e4v6Epo9zL-6" value="" style="edgeStyle=orthogonalEdgeStyle;rounded=0;orthogonalLoop=1;jettySize=auto;html=1;" edge="1" parent="1" source="mNuq875lW_e4v6Epo9zL-3" target="mNuq875lW_e4v6Epo9zL-5">
          <mxGeometry relative="1" as="geometry" />
        </mxCell>
        <mxCell id="mNuq875lW_e4v6Epo9zL-3" value="Ler Dados.R" style="whiteSpace=wrap;html=1;strokeWidth=1;rounded=1;arcSize=12;" vertex="1" parent="1">
          <mxGeometry x="320" y="160" width="120" height="60" as="geometry" />
        </mxCell>
        <mxCell id="mNuq875lW_e4v6Epo9zL-8" value="" style="edgeStyle=orthogonalEdgeStyle;rounded=0;orthogonalLoop=1;jettySize=auto;html=1;" edge="1" parent="1" source="mNuq875lW_e4v6Epo9zL-5" target="mNuq875lW_e4v6Epo9zL-7">
          <mxGeometry relative="1" as="geometry" />
        </mxCell>
        <mxCell id="mNuq875lW_e4v6Epo9zL-12" value="" style="edgeStyle=orthogonalEdgeStyle;rounded=0;orthogonalLoop=1;jettySize=auto;html=1;" edge="1" parent="1" source="mNuq875lW_e4v6Epo9zL-5" target="mNuq875lW_e4v6Epo9zL-11">
          <mxGeometry relative="1" as="geometry" />
        </mxCell>
        <mxCell id="mNuq875lW_e4v6Epo9zL-5" value="Otimizacao.R" style="whiteSpace=wrap;html=1;strokeWidth=1;rounded=1;arcSize=12;" vertex="1" parent="1">
          <mxGeometry x="320" y="300" width="120" height="60" as="geometry" />
        </mxCell>
        <mxCell id="mNuq875lW_e4v6Epo9zL-10" style="edgeStyle=orthogonalEdgeStyle;rounded=0;orthogonalLoop=1;jettySize=auto;html=1;exitX=0.5;exitY=0;exitDx=0;exitDy=0;entryX=1;entryY=0.5;entryDx=0;entryDy=0;" edge="1" parent="1" source="mNuq875lW_e4v6Epo9zL-7" target="mNuq875lW_e4v6Epo9zL-3">
          <mxGeometry relative="1" as="geometry" />
        </mxCell>
        <mxCell id="mNuq875lW_e4v6Epo9zL-7" value="&lt;font face=&quot;Lucida Console&quot;&gt;max.gl == 1e6&lt;/font&gt;&lt;div&gt;&lt;font face=&quot;Lucida Console&quot;&gt;|kappa| &amp;gt; 0.5&lt;/font&gt;&lt;/div&gt;" style="rhombus;whiteSpace=wrap;html=1;strokeWidth=1;rounded=1;arcSize=12;" vertex="1" parent="1">
          <mxGeometry x="540" y="275" width="150" height="110" as="geometry" />
        </mxCell>
        <mxCell id="mNuq875lW_e4v6Epo9zL-14" value="" style="edgeStyle=orthogonalEdgeStyle;rounded=0;orthogonalLoop=1;jettySize=auto;html=1;" edge="1" parent="1" source="mNuq875lW_e4v6Epo9zL-11" target="mNuq875lW_e4v6Epo9zL-13">
          <mxGeometry relative="1" as="geometry" />
        </mxCell>
        <mxCell id="mNuq875lW_e4v6Epo9zL-11" value="Quantis.R" style="whiteSpace=wrap;html=1;strokeWidth=1;rounded=1;arcSize=12;" vertex="1" parent="1">
          <mxGeometry x="320" y="440" width="120" height="60" as="geometry" />
        </mxCell>
        <mxCell id="mNuq875lW_e4v6Epo9zL-13" value="Incerteza.R" style="whiteSpace=wrap;html=1;strokeWidth=1;rounded=1;arcSize=12;" vertex="1" parent="1">
          <mxGeometry x="320" y="580" width="120" height="60" as="geometry" />
        </mxCell>
      </root>
    </mxGraphModel>
  </diagram>
</mxfile>
